<svg width="512" height="512" viewBox="0 0 512 512" fill="none" xmlns="http://www.w3.org/2000/svg">
<rect width="512" height="512" rx="85.3333" fill="#D95323"/>
<path d="M112 282.667C112 282.667 146.37 229.333 213.333 229.333C280.3 229.333 316 192 362.667 192C409.333 192 400 282.667 400 282.667C400 282.667 326.667 293.333 288 309.333C249.333 325.333 112 282.667 112 282.667Z" fill="#FBBF24" stroke="#4A2C2A" stroke-width="16"/>
<path d="M213.333 229.333C213.333 229.333 202.667 206.667 213.333 192C224 177.333 253.333 181.333 261.333 192C269.333 202.667 272 229.333 272 229.333" stroke="#4A2C2A" stroke-width="16" stroke-linecap="round"/>
<path d="M266.667 229.333C266.667 229.333 257.333 209.333 266.667 194.667C276 180 302.667 181.333 310.667 192C318.667 202.667 320 229.333 320 229.333" stroke="#4A2C2A" stroke-width="16" stroke-linecap="round"/>
</svg>