<svg width="192" height="192" viewBox="0 0 192 192" fill="none" xmlns="http://www.w3.org/2000/svg">
<rect width="192" height="192" rx="32" fill="#D95323"/>
<path d="M42 106C42 106 54.8889 86 80 86C105.111 86 118.5 72 136 72C153.5 72 150 106 150 106C150 106 122.5 110 108 116C93.5 122 42 106 42 106Z" fill="#FBBF24" stroke="#4A2C2A" stroke-width="6"/>
<path d="M80 86C80 86 76 77.5 80 72C84 66.5 95 68 98 72C101 76 102 86 102 86" stroke="#4A2C2A" stroke-width="6" stroke-linecap="round"/>
<path d="M100 86C100 86 96.5 78.5 100 73C103.5 67.5 113.5 68 116.5 72C119.5 76 120 86 120 86" stroke="#4A2C2A" stroke-width="6" stroke-linecap="round"/>
</svg>
